P3
60 60
255
165 165 165 165 165 165 165 165 165 165 165 165 165 165 165 165 165 165 
165 165 165 165 165 165 165 165 165 165 165 165 165 165 165 0 0 0 165 165 165 
0 0 0 231 231 231 231 231 231 231 231 0 231 231 0 231 231 231 231 231 231 
231 231 0 231 231 0 231 231 0 231 231 0 231 231 0 231 231 0 231 231 0 
231 231 0 231 231 0 231 231 0 231 231 0 231 231 0 231 231 0 231 231 0 
231 231 0 231 231 0 231 231 0 231 231 0 231 231 0 231 231 0 231 231 0 
231 231 0 231 231 0 231 231 0 0 0 0 0 0 0 231 231 231 0 0 0 165 165 165 
165 165 165 165 165 165 165 165 165 165 165 165 165 165 165 165 165 165 
165 165 165 165 165 165 165 165 165 165 165 165 165 165 165 165 165 165 
165 165 165 165 165 165 165 165 165 165 165 165 165 165 165 165 165 165 
165 165 165 165 165 165 165 165 165 0 0 0 231 231 231 0 0 0 231 231 231 
231 231 231 231 231 231 231 231 0 231 231 0 231 231 231 231 231 0 231 231 0 
231 231 0 231 231 0 231 231 0 231 231 0 231 231 0 231 231 0 231 231 0 
231 231 0 231 231 0 231 231 0 231 231 0 231 231 0 231 231 0 231 231 0 
231 231 0 231 231 0 231 231 0 231 231 0 231 231 0 231 231 0 231 231 0 
231 231 0 231 231 0 231 231 0 231 231 0 231 231 231 0 0 0 165 165 165 
165 165 165 165 165 165 165 165 165 165 165 165 165 165 165 165 165 165 
165 165 165 165 165 165 165 165 165 165 165 165 165 165 165 165 165 165 
165 165 165 165 165 165 165 165 165 165 165 165 165 165 165 165 165 165 
165 165 165 165 165 165 165 165 165 0 0 0 231 231 231 0 0 0 231 231 231 
231 231 231 231 231 0 231 231 0 231 231 0 231 231 0 231 231 0 231 231 0 
231 231 0 231 231 0 231 231 0 231 231 0 231 231 0 231 231 0 231 231 0 
231 231 0 231 231 0 231 231 0 231 231 0 231 231 0 231 231 0 231 231 0 
231 231 0 231 231 0 231 231 0 231 231 0 231 231 0 231 231 0 231 231 0 
231 231 0 231 231 0 231 231 0 231 231 0 231 231 231 0 0 0 165 165 165 
0 0 0 0 0 0 165 165 165 165 165 165 165 165 165 165 165 165 165 165 165 
165 165 165 165 165 165 165 165 165 165 165 165 165 165 165 165 165 165 
165 165 165 165 165 165 165 165 165 165 165 165 165 165 165 165 165 165 
0 0 0 0 0 0 231 231 231 231 231 231 231 231 231 231 231 231 231 231 231 
231 231 0 231 231 0 231 231 0 231 231 0 231 231 0 231 231 0 231 231 0 
231 231 0 231 231 0 231 231 0 231 231 0 231 231 0 231 231 0 231 231 0 
231 231 0 231 231 0 231 231 0 231 231 0 231 231 0 231 231 0 231 231 0 
231 231 0 231 231 0 231 231 0 231 231 0 231 231 0 231 231 0 231 231 0 
231 231 0 231 231 0 231 231 0 231 231 0 0 0 0 0 0 0 231 231 231 0 0 0 165 165 165 
165 165 165 165 165 165 165 165 165 165 165 165 165 165 165 165 165 165 
165 165 165 165 165 165 165 165 165 165 165 165 165 165 165 165 165 165 
165 165 165 165 165 165 165 165 165 0 0 0 231 231 231 231 231 231 231 231 231 
231 231 231 231 231 231 231 231 231 231 231 231 231 231 0 231 231 0 231 231 0 
231 231 0 231 231 0 231 231 0 231 231 0 231 231 0 231 231 0 231 231 0 
231 231 0 231 231 0 231 231 0 231 231 0 231 231 0 231 231 0 231 231 0 
231 231 0 231 231 0 231 231 0 231 231 0 231 231 0 231 231 0 231 231 0 
231 231 0 231 231 0 231 231 0 231 231 0 231 231 0 231 231 0 231 231 0 
231 231 0 231 231 0 231 231 0 231 231 231 0 0 0 165 165 165 165 165 165 
165 165 165 165 165 165 165 165 165 165 165 165 165 165 165 165 165 165 
165 165 165 165 165 165 165 165 165 165 165 165 165 165 165 165 165 165 
165 165 165 165 165 165 0 0 0 231 231 231 231 231 231 231 231 231 231 231 231 
231 231 231 231 231 0 231 231 0 231 231 0 231 231 0 231 231 0 231 231 0 
231 231 0 231 231 0 231 231 0 231 231 0 231 231 0 231 231 0 231 231 0 
231 231 0 231 231 0 231 231 0 231 231 0 231 231 0 231 231 0 231 231 0 
231 231 0 231 231 0 231 231 0 231 231 0 231 231 0 231 231 0 231 231 0 
231 231 0 231 231 0 231 231 0 231 231 0 231 231 0 231 231 0 231 231 0 
231 231 0 231 231 0 231 231 231 0 0 0 165 165 165 165 165 165 165 165 165 
165 165 165 165 165 165 165 165 165 165 165 165 165 165 165 165 165 165 
165 165 165 165 165 165 165 165 165 165 165 165 165 165 165 165 165 165 
0 0 0 231 231 231 231 231 231 231 231 0 231 231 0 231 231 0 231 231 0 
231 231 0 231 231 0 231 231 0 231 231 0 231 231 0 231 231 0 231 231 0 
0 0 0 231 231 0 231 231 0 231 231 0 231 231 0 231 231 0 231 231 0 231 231 0 
231 231 0 231 231 0 231 231 0 231 231 0 231 231 0 231 231 0 231 231 0 
231 231 0 231 231 0 231 231 0 231 231 0 231 231 0 231 231 0 231 231 0 
231 231 0 0 0 0 231 231 0 231 231 0 231 231 0 231 231 0 231 231 0 231 231 0 
0 0 0 165 165 165 165 165 165 165 165 165 165 165 165 165 165 165 165 165 165 
165 165 165 165 165 165 165 165 165 165 165 165 165 165 165 165 165 165 
165 165 165 165 165 165 165 165 165 0 0 0 231 231 231 231 231 231 231 231 0 
231 231 0 231 231 0 231 231 0 231 231 0 231 231 0 231 231 0 231 231 0 
231 231 0 231 231 0 0 0 0 231 231 0 231 231 0 231 231 0 231 231 0 231 231 0 
231 231 0 231 231 0 231 231 0 231 231 0 231 231 0 231 231 0 231 231 0 
231 231 0 231 231 0 231 231 0 231 231 0 231 231 0 231 231 0 231 231 0 
231 231 0 231 231 0 231 231 0 0 0 0 198 99 0 231 231 0 231 231 0 231 231 0 
231 231 0 231 231 0 231 231 0 0 0 0 165 165 165 165 165 165 165 165 165 
165 165 165 165 165 165 165 165 165 165 165 165 165 165 165 165 165 165 
165 165 165 165 165 165 165 165 165 165 165 165 165 165 165 0 0 0 231 231 231 
231 231 231 231 231 0 231 231 0 231 231 0 231 231 0 231 231 0 231 231 0 
231 231 0 231 231 0 231 231 0 231 231 0 0 0 0 231 231 0 231 231 0 231 231 0 
231 231 0 231 231 0 231 231 0 231 231 0 231 231 0 0 0 0 231 231 0 231 231 0 
231 231 0 231 231 0 231 231 0 231 231 0 231 231 0 231 231 0 231 231 0 
231 231 0 231 231 0 231 231 0 231 231 0 0 0 0 198 99 0 231 231 0 231 231 0 
231 231 0 231 231 0 231 231 0 231 231 0 231 231 0 0 0 0 165 165 165 
165 165 165 165 165 165 165 165 165 165 165 165 165 165 165 165 165 165 
165 165 165 165 165 165 165 165 165 165 165 165 165 165 165 165 165 165 
165 165 165 0 0 0 231 231 231 231 231 231 231 231 0 231 231 0 231 231 0 
231 231 0 231 231 0 231 231 0 231 231 0 231 231 0 231 231 0 198 99 0 0 0 0 
231 231 0 231 231 0 231 231 0 231 231 0 231 231 0 231 231 0 231 231 0 
198 99 0 231 231 0 231 231 0 231 231 0 231 231 0 231 231 0 231 231 0 231 231 0 
231 231 0 231 231 0 231 231 0 231 231 0 231 231 0 0 0 0 0 0 0 198 99 0 
231 231 0 231 231 0 231 231 0 231 231 0 231 231 0 231 231 0 231 231 0 
231 231 0 231 231 0 0 0 0 165 165 165 165 165 165 165 165 165 165 165 165 
165 165 165 165 165 165 165 165 165 165 165 165 165 165 165 165 165 165 
165 165 165 165 165 165 165 165 165 0 0 0 231 231 231 231 231 231 231 231 0 
231 231 0 0 0 0 231 231 0 231 231 0 231 231 0 231 231 0 231 231 0 231 231 0 
0 0 0 231 231 0 231 231 0 231 231 0 231 231 0 231 231 0 231 231 0 231 231 0 
0 0 0 198 99 0 231 231 0 231 231 0 231 231 0 231 231 0 231 231 0 231 231 0 
231 231 0 231 231 0 198 99 0 0 0 0 0 0 0 0 0 0 198 99 0 198 99 0 231 231 0 
231 231 0 231 231 0 231 231 0 231 231 0 231 231 0 231 231 0 231 231 0 
231 231 0 231 231 0 0 0 0 165 165 165 165 165 165 165 165 165 165 165 165 
165 165 165 165 165 165 165 165 165 165 165 165 165 165 165 165 165 165 
165 165 165 165 165 165 0 0 0 231 231 231 231 231 0 231 231 0 231 231 0 
231 231 0 0 0 0 231 231 0 231 231 0 231 231 0 231 231 0 231 231 0 198 99 0 
0 0 0 231 231 0 231 231 0 231 231 0 231 231 0 231 231 0 231 231 0 0 0 0 198 99 0 
231 231 0 231 231 0 231 231 0 231 231 0 231 231 0 231 231 0 231 231 0 
231 231 0 198 99 0 0 0 0 198 99 0 198 99 0 198 99 0 231 231 0 231 231 0 
231 231 0 231 231 0 231 231 0 231 231 0 231 231 0 231 231 0 231 231 0 
231 231 0 231 231 0 231 231 0 0 0 0 165 165 165 165 165 165 0 0 0 0 0 0 165 165 165 
165 165 165 165 165 165 165 165 165 165 165 165 0 0 0 165 165 165 165 165 165 
0 0 0 231 231 231 231 231 0 231 231 0 231 231 0 231 231 0 0 0 0 231 231 0 
231 231 0 231 231 0 231 231 0 231 231 0 198 99 0 0 0 0 198 99 0 231 231 0 
231 231 0 231 231 0 231 231 0 231 231 0 0 0 0 198 99 0 231 231 0 198 99 0 
231 231 0 198 99 0 231 231 0 231 231 0 198 99 0 198 99 0 0 0 0 198 99 0 
198 99 0 198 99 0 231 231 0 231 231 0 231 231 0 231 231 0 231 231 0 231 231 0 
231 231 0 231 231 0 231 231 0 231 231 0 231 231 0 231 231 0 231 231 0 
231 231 0 0 0 0 0 0 0 231 231 0 0 0 0 165 165 165 165 165 165 165 165 165 
165 165 165 165 165 165 165 165 165 0 0 0 0 0 0 0 0 0 231 231 231 231 231 0 
231 231 0 231 231 0 231 231 0 198 99 0 0 0 0 231 231 0 231 231 0 231 231 0 
231 231 0 198 99 0 0 0 0 198 99 0 231 231 0 231 231 0 231 231 0 231 231 0 
198 99 0 0 0 0 198 99 0 198 99 0 198 99 0 198 99 0 198 99 0 231 231 0 
198 99 0 198 99 0 198 99 0 0 0 0 198 99 0 198 99 0 198 99 0 198 99 0 198 99 0 
231 231 0 231 231 0 231 231 0 231 231 0 231 231 0 231 231 0 231 231 0 
198 99 0 231 231 0 231 231 0 231 231 0 231 231 0 231 231 0 231 231 0 0 0 0 
165 165 165 165 165 165 165 165 165 165 165 165 165 165 165 165 165 165 
165 165 165 0 0 0 231 231 0 0 0 0 231 231 0 231 231 0 231 231 0 231 231 0 
231 231 0 198 99 0 0 0 0 198 99 0 231 231 0 198 99 0 198 99 0 198 99 0 
198 99 0 0 0 0 198 99 0 231 231 0 231 231 0 231 231 0 198 99 0 0 0 0 198 99 0 
198 99 0 198 99 0 198 99 0 198 99 0 198 99 0 198 99 0 0 0 0 0 0 0 0 0 0 0 0 0 
0 0 0 198 99 0 198 99 0 198 99 0 231 231 0 231 231 0 231 231 0 231 231 0 
231 231 0 198 99 0 198 99 0 198 99 0 231 231 0 231 231 0 231 231 0 231 231 0 
231 231 0 231 231 231 0 0 0 165 165 165 165 165 165 165 165 165 165 165 165 
165 165 165 165 165 165 165 165 165 0 0 0 231 231 231 231 231 0 231 231 0 
231 231 0 231 231 0 231 231 0 231 231 0 231 231 0 198 99 0 0 0 0 198 99 0 
198 99 0 0 0 0 0 0 0 0 0 0 0 0 0 0 0 0 198 99 0 198 99 0 231 231 0 198 99 0 
198 99 0 0 0 0 198 99 0 198 99 0 0 0 0 0 0 0 0 0 0 0 0 0 198 99 0 198 99 0 
198 99 0 198 99 0 198 99 0 0 0 0 0 0 0 198 99 0 198 99 0 231 231 0 231 231 0 
198 99 0 198 99 0 0 0 0 198 99 0 231 231 0 231 231 0 231 231 0 231 231 0 
231 231 0 231 231 231 0 0 0 165 165 165 165 165 165 165 165 165 165 165 165 
165 165 165 165 165 165 165 165 165 165 165 165 0 0 0 231 231 231 231 231 0 
231 231 0 231 231 0 198 99 0 231 231 0 231 231 0 198 99 0 198 99 0 198 99 0 
0 0 0 0 0 0 198 99 0 198 99 0 198 99 0 198 99 0 198 99 0 0 0 0 198 99 0 
198 99 0 198 99 0 198 99 0 0 0 0 0 0 0 0 0 0 198 99 0 198 99 0 198 99 0 
198 99 0 198 99 0 198 99 0 198 99 0 198 99 0 198 99 0 198 99 0 198 99 0 
0 0 0 198 99 0 198 99 0 198 99 0 198 99 0 0 0 0 198 99 0 198 99 0 231 231 0 
231 231 0 231 231 0 231 231 0 231 231 0 0 0 0 165 165 165 165 165 165 
165 165 165 0 0 0 165 165 165 165 165 165 165 165 165 165 165 165 0 0 0 231 231 231 
231 231 0 231 231 0 0 0 0 231 231 0 231 231 0 198 99 0 198 99 0 198 99 0 
198 99 0 0 0 0 198 99 0 198 99 0 198 99 0 231 165 132 231 165 132 198 99 0 
198 99 0 0 0 0 198 99 0 0 0 0 198 99 0 0 0 0 198 99 0 198 99 0 198 99 0 
231 165 132 231 165 132 231 165 132 231 165 132 231 165 132 231 165 132 
231 165 132 198 99 0 198 99 0 198 99 0 198 99 0 198 99 0 0 0 0 0 0 0 0 0 0 
0 0 0 198 99 0 198 99 0 231 231 0 231 231 0 231 231 0 231 231 0 231 231 0 
231 231 0 231 231 0 0 0 0 0 0 0 0 0 0 165 165 165 165 165 165 165 165 165 
165 165 165 165 165 165 0 0 0 231 231 231 231 231 0 231 231 0 0 0 0 231 231 0 
231 231 0 198 99 0 198 99 0 198 99 0 0 0 0 198 99 0 198 99 0 231 165 132 
231 165 132 231 165 132 231 165 132 231 165 132 0 0 0 231 231 0 0 0 0 198 99 0 
0 0 0 198 99 0 198 99 0 231 165 132 231 165 132 231 165 132 231 165 132 
231 165 132 231 165 132 231 165 132 231 165 132 231 165 132 231 165 132 
231 165 132 198 99 0 198 99 0 198 99 0 198 99 0 0 0 0 198 99 0 198 99 0 
231 231 0 231 231 0 231 231 0 231 231 0 231 231 0 231 231 0 231 231 0 
231 231 0 231 231 0 231 231 0 231 231 0 0 0 0 165 165 165 165 165 165 
165 165 165 165 165 165 165 165 165 0 0 0 231 231 231 231 231 231 231 231 0 
198 99 0 0 0 0 231 231 0 198 99 0 198 99 0 0 0 0 198 99 0 198 99 0 231 165 132 
231 165 132 231 165 132 231 165 132 231 165 132 231 165 132 0 0 0 231 231 0 
0 0 0 198 99 0 0 0 0 198 99 0 231 165 132 231 165 132 231 165 132 231 165 132 
231 165 132 231 165 132 231 165 132 231 165 132 231 165 132 231 165 132 
231 165 132 231 165 132 198 99 0 198 99 0 198 99 0 198 99 0 0 0 0 198 99 0 
198 99 0 198 99 0 198 99 0 231 231 0 231 231 0 231 231 0 231 231 0 231 231 0 
231 231 0 231 231 231 231 231 231 0 0 0 165 165 165 165 165 165 165 165 165 
165 165 165 165 165 165 165 165 165 165 165 165 0 0 0 231 231 231 231 231 0 
231 231 0 198 99 0 0 0 0 198 99 0 198 99 0 0 0 0 198 99 0 231 165 132 
231 165 132 231 165 132 231 165 132 231 165 132 231 165 132 231 165 132 
0 0 0 0 0 0 198 99 0 231 165 132 0 0 0 198 99 0 231 165 132 231 165 132 
231 165 132 231 165 132 231 165 132 231 165 132 231 165 132 231 165 132 
231 165 132 231 165 132 231 165 132 231 165 132 231 165 132 198 99 0 198 99 0 
198 99 0 198 99 0 0 0 0 198 99 0 198 99 0 231 231 0 198 99 0 231 231 0 
231 231 0 231 231 0 231 231 0 231 231 0 231 231 0 0 0 0 165 165 165 
165 165 165 165 165 165 165 165 165 165 165 165 165 165 165 0 0 0 0 0 0 0 0 0 
231 231 231 231 231 0 231 231 0 198 99 0 198 99 0 0 0 0 0 0 0 198 99 0 
231 165 132 231 165 132 231 165 132 231 165 132 231 165 132 231 165 132 
231 165 132 231 165 132 231 165 132 0 0 0 198 99 0 231 165 132 231 165 132 
0 0 0 198 99 0 231 165 132 231 165 132 231 165 132 231 165 132 231 165 132 
231 165 132 231 165 132 231 165 132 231 165 132 231 165 132 231 165 132 
231 165 132 198 99 0 198 99 0 198 99 0 198 99 0 0 0 0 198 99 0 198 99 0 
198 99 0 231 231 0 231 231 0 231 231 0 231 231 0 231 231 0 231 231 0 231 231 0 
0 0 0 165 165 165 165 165 165 165 165 165 165 165 165 165 165 165 165 165 165 
165 165 165 0 0 0 231 231 0 0 0 0 231 231 231 231 231 0 231 231 0 198 99 0 
198 99 0 0 0 0 198 99 0 231 165 132 231 165 132 231 165 132 231 165 132 
231 165 132 231 165 132 231 165 132 231 165 132 231 165 132 231 165 132 
0 0 0 231 165 132 231 165 132 231 165 132 231 165 132 231 165 132 231 165 132 
231 165 132 231 165 132 231 165 132 231 165 132 231 165 132 231 165 132 
231 165 132 231 165 132 231 165 132 231 165 132 231 165 132 198 99 0 198 99 0 
198 99 0 198 99 0 0 0 0 198 99 0 198 99 0 231 231 0 231 231 0 231 231 0 
231 231 0 231 231 0 231 231 0 231 231 0 231 231 0 0 0 0 0 0 0 165 165 165 
165 165 165 165 165 165 165 165 165 165 165 165 0 0 0 231 231 231 231 231 0 
231 231 0 231 231 0 231 231 0 198 99 0 0 0 0 198 99 0 231 165 132 231 165 132 
231 165 132 231 165 132 231 165 132 231 165 132 231 165 132 231 165 132 
231 165 132 231 165 132 231 165 132 231 165 132 231 165 132 231 165 132 
231 165 132 231 165 132 231 165 132 231 165 132 231 165 132 231 165 132 
231 165 132 231 165 132 231 165 132 231 165 132 231 165 132 231 165 132 
231 165 132 231 165 132 231 165 132 198 99 0 198 99 0 198 99 0 198 99 0 
0 0 0 198 99 0 231 231 0 231 231 0 231 231 0 231 231 0 231 231 0 231 231 0 
231 231 0 231 231 0 231 231 0 0 0 0 165 165 165 165 165 165 165 165 165 
165 165 165 165 165 165 165 165 165 165 165 165 0 0 0 231 231 231 231 231 0 
231 231 0 231 231 0 198 99 0 0 0 0 198 99 0 231 165 132 231 165 132 
231 165 132 231 165 132 231 165 132 231 165 132 231 165 132 231 165 132 
231 165 132 231 165 132 231 165 132 231 165 132 231 165 132 231 165 132 
231 165 132 231 165 132 231 165 132 231 165 132 231 165 132 231 165 132 
231 165 132 231 165 132 231 165 132 231 165 132 231 165 132 231 165 132 
231 165 132 231 165 132 231 165 132 198 99 0 198 99 0 198 99 0 198 99 0 
0 0 0 198 99 0 198 99 0 231 231 0 231 231 0 231 231 0 231 231 0 231 231 0 
231 231 0 231 231 0 0 0 0 165 165 165 165 165 165 165 165 165 165 165 165 
165 165 165 165 165 165 165 165 165 165 165 165 165 165 165 0 0 0 231 231 0 
231 231 0 198 99 0 198 99 0 0 0 0 198 99 0 231 165 132 231 165 132 231 165 132 
231 165 132 231 165 132 231 165 132 231 165 132 231 165 132 231 165 132 
231 165 132 231 165 132 231 165 132 231 165 132 231 165 132 231 165 132 
231 165 132 231 165 132 231 165 132 231 165 132 231 165 132 231 165 132 
231 165 132 231 165 132 231 165 132 231 165 132 231 165 132 231 165 132 
231 165 132 231 165 132 198 99 0 198 99 0 198 99 0 0 0 0 198 99 0 198 99 0 
198 99 0 198 99 0 231 231 0 231 231 0 231 231 0 231 231 0 231 231 0 0 0 0 
165 165 165 165 165 165 165 165 165 165 165 165 165 165 165 165 165 165 
165 165 165 165 165 165 0 0 0 0 0 0 231 231 0 231 231 0 231 231 0 198 99 0 
198 99 0 0 0 0 198 99 0 198 99 0 231 165 132 231 165 132 231 165 132 
231 165 132 231 165 132 231 165 132 231 165 132 231 165 132 231 165 132 
231 165 132 231 165 132 231 165 132 231 165 132 231 165 132 231 165 132 
231 165 132 231 165 132 231 165 132 231 165 132 231 165 132 231 165 132 
231 165 132 231 165 132 231 165 132 231 165 132 231 165 132 231 165 132 
198 99 0 198 99 0 198 99 0 0 0 0 0 0 0 198 99 0 198 99 0 198 99 0 231 231 0 
231 231 0 231 231 0 231 231 0 231 231 0 231 231 0 0 0 0 165 165 165 
165 165 165 165 165 165 165 165 165 165 165 165 165 165 165 165 165 165 
0 0 0 231 231 0 231 231 0 198 99 0 0 0 0 231 231 0 198 99 0 198 99 0 0 0 0 
198 99 0 198 99 0 198 99 0 231 165 132 231 165 132 231 165 132 231 165 132 
231 165 132 231 165 132 231 165 132 231 165 132 231 165 132 231 165 132 
231 165 132 231 165 132 231 165 132 231 165 132 231 165 132 231 165 132 
231 165 132 231 165 132 231 165 132 231 165 132 231 165 132 231 165 132 
231 165 132 198 99 0 198 99 0 198 99 0 198 99 0 198 99 0 198 99 0 198 99 0 
198 99 0 0 0 0 198 99 0 198 99 0 198 99 0 231 231 0 231 231 0 231 231 0 
231 231 0 198 99 0 198 99 0 0 0 0 0 0 0 165 165 165 165 165 165 165 165 165 
165 165 165 165 165 165 165 165 165 0 0 0 231 231 231 231 231 0 198 99 0 
0 0 0 0 0 0 0 0 0 198 99 0 198 99 0 231 165 132 231 165 132 231 165 132 
231 165 132 231 165 132 231 165 132 231 165 132 231 165 132 231 165 132 
231 165 132 231 165 132 231 165 132 231 165 132 231 165 132 231 165 132 
231 165 132 231 165 132 231 165 132 231 165 132 231 165 132 231 165 132 
231 165 132 231 165 132 198 99 0 198 99 0 231 165 132 231 165 132 231 165 132 
198 99 0 198 99 0 198 99 0 198 99 0 198 99 0 0 0 0 198 99 0 198 99 0 198 99 0 
198 99 0 231 231 0 198 99 0 198 99 0 198 99 0 231 231 0 231 231 0 0 0 0 165 165 165 
165 165 165 165 165 165 165 165 165 165 165 165 165 165 165 165 165 165 
0 0 0 231 231 0 231 231 0 198 99 0 198 99 0 0 0 0 198 99 0 231 165 132 
231 165 132 231 165 132 231 165 132 231 165 132 231 165 132 231 165 132 
231 165 132 231 165 132 231 165 132 231 165 132 231 165 132 231 165 132 
231 165 132 231 165 132 231 165 132 231 165 132 231 165 132 231 165 132 
231 165 132 231 165 132 231 165 132 231 165 132 231 165 132 231 165 132 
231 165 132 231 165 132 231 165 132 231 165 132 231 165 132 198 99 0 198 99 0 
198 99 0 198 99 0 198 99 0 0 0 0 198 99 0 198 99 0 198 99 0 198 99 0 198 99 0 
198 99 0 231 231 0 231 231 0 0 0 0 165 165 165 165 165 165 165 165 165 
165 165 165 165 165 165 165 165 165 165 165 165 165 165 165 0 0 0 231 231 0 
231 231 0 231 231 0 198 99 0 0 0 0 198 99 0 231 165 132 231 165 132 
231 165 132 231 165 132 231 165 132 231 165 132 231 165 132 231 165 132 
231 165 132 231 165 132 231 165 132 231 165 132 231 165 132 231 165 132 
231 165 132 231 165 132 198 99 0 231 165 132 231 165 132 231 165 132 
231 165 132 231 165 132 231 165 132 231 165 132 231 165 132 231 165 132 
231 165 132 231 231 0 231 231 0 231 231 0 231 165 132 198 99 0 198 99 0 
198 99 0 198 99 0 0 0 0 198 99 0 198 99 0 198 99 0 231 231 0 231 231 0 
231 231 0 0 0 0 231 231 0 231 231 0 0 0 0 0 0 0 0 0 0 165 165 165 165 165 165 
165 165 165 165 165 165 0 0 0 198 99 0 231 231 0 0 0 0 231 231 0 198 99 0 
0 0 0 198 99 0 198 99 0 231 231 0 231 231 0 231 231 0 231 165 132 231 165 132 
231 165 132 231 165 132 231 165 132 231 165 132 231 165 132 231 165 132 
198 99 0 231 165 132 231 165 132 132 33 0 198 99 0 231 165 132 231 165 132 
231 165 132 231 165 132 231 165 132 231 165 132 231 165 132 231 165 132 
231 231 0 231 231 0 0 0 0 0 0 0 0 0 0 231 231 0 198 99 0 198 99 0 198 99 0 
198 99 0 0 0 0 231 231 0 198 99 0 231 231 0 198 99 0 198 99 0 0 0 0 198 99 0 
231 231 0 198 99 0 198 99 0 0 0 0 165 165 165 165 165 165 165 165 165 
165 165 165 165 165 165 165 165 165 0 0 0 198 99 0 231 231 0 0 0 0 198 99 0 
0 0 0 198 99 0 231 231 0 231 231 0 0 0 0 0 0 0 231 231 0 231 231 0 231 231 0 
231 165 132 231 165 132 231 165 132 231 165 132 198 99 0 132 33 0 198 99 0 
231 165 132 132 33 0 198 99 0 231 165 132 231 165 132 231 165 132 231 165 132 
231 165 132 231 165 132 231 231 0 231 231 0 0 0 0 0 0 0 198 99 0 198 99 0 
198 99 0 0 0 0 231 231 0 198 99 0 198 99 0 198 99 0 0 0 0 231 231 0 198 99 0 
198 99 0 0 0 0 0 0 0 198 99 0 198 99 0 198 99 0 198 99 0 0 0 0 165 165 165 
165 165 165 165 165 165 165 165 165 165 165 165 165 165 165 165 165 165 
165 165 165 0 0 0 198 99 0 231 231 0 0 0 0 0 0 0 198 99 0 231 231 0 0 0 0 
198 99 0 198 99 0 0 0 0 0 0 0 0 0 0 231 231 0 231 231 0 231 231 0 231 165 132 
198 99 0 0 0 0 198 99 0 231 165 132 0 0 0 231 231 0 231 165 132 231 165 132 
231 165 132 231 165 132 231 231 0 231 231 0 0 0 0 0 0 0 0 0 0 198 99 0 
198 99 0 198 99 0 198 99 0 0 0 0 231 231 0 198 99 0 198 99 0 198 99 0 0 0 0 
231 231 0 198 99 0 0 0 0 231 165 132 0 0 0 198 99 0 198 99 0 198 99 0 0 0 0 
165 165 165 165 165 165 165 165 165 165 165 165 165 165 165 165 165 165 
165 165 165 165 165 165 165 165 165 165 165 165 0 0 0 198 99 0 198 99 0 
0 0 0 198 99 0 0 0 0 198 99 0 198 99 0 198 99 0 0 0 0 0 0 0 0 0 0 0 0 0 0 0 0 
0 0 0 231 231 0 231 231 0 132 33 0 198 99 0 198 99 0 132 33 0 0 0 0 231 231 0 
231 231 0 231 231 0 231 231 0 231 231 0 0 0 0 0 0 0 0 0 0 0 0 0 0 0 0 0 0 0 
198 99 0 198 99 0 198 99 0 0 0 0 198 99 0 198 99 0 198 99 0 0 0 0 198 99 0 
198 99 0 0 0 0 0 0 0 231 165 132 0 0 0 198 99 0 231 231 0 0 0 0 165 165 165 
165 165 165 165 165 165 165 165 165 165 165 165 165 165 165 165 165 165 
165 165 165 165 165 165 165 165 165 0 0 0 0 0 0 198 99 0 0 0 0 198 99 0 
198 99 0 198 99 0 198 99 0 0 0 0 165 165 165 165 165 165 165 165 165 
0 0 0 0 0 0 0 0 0 0 0 0 198 99 0 198 99 0 198 99 0 198 99 0 198 99 0 132 33 0 
0 0 0 0 0 0 0 0 0 0 0 0 0 0 0 165 165 165 165 165 165 0 0 0 0 0 0 0 0 0 99 99 99 
0 0 0 198 99 0 198 99 0 198 99 0 198 99 0 198 99 0 198 99 0 0 0 0 198 99 0 
0 0 0 132 33 0 0 0 0 231 165 132 0 0 0 198 99 0 231 231 0 231 231 0 0 0 0 
0 0 0 165 165 165 165 165 165 165 165 165 165 165 165 165 165 165 165 165 165 
165 165 165 165 165 165 0 0 0 198 99 0 0 0 0 198 99 0 0 0 0 198 99 0 198 99 0 
0 0 0 165 165 165 165 165 165 165 165 165 0 0 0 0 0 0 231 231 231 0 0 0 0 0 0 
198 99 0 198 99 0 198 99 0 198 99 0 198 99 0 198 99 0 198 99 0 198 99 0 
198 99 0 0 0 0 165 165 165 165 165 165 0 0 0 0 0 0 231 231 231 0 0 0 0 0 0 
99 99 99 0 0 0 198 99 0 198 99 0 198 99 0 198 99 0 198 99 0 0 0 0 198 99 0 
0 0 0 132 33 0 198 99 0 231 165 132 0 0 0 198 99 0 198 99 0 198 99 0 0 0 0 
165 165 165 165 165 165 165 165 165 165 165 165 165 165 165 165 165 165 
165 165 165 165 165 165 165 165 165 0 0 0 231 165 132 0 0 0 198 99 0 0 0 0 
198 99 0 198 99 0 0 0 0 165 165 165 231 231 231 231 231 231 0 0 0 0 0 132 
0 0 0 0 0 0 165 165 165 0 0 0 198 99 0 231 165 132 231 165 132 231 165 132 
198 99 0 198 99 0 198 99 0 0 0 0 165 165 165 165 165 165 165 165 165 
0 0 0 0 0 132 0 0 0 0 0 0 0 0 0 165 165 165 0 0 0 198 99 0 198 99 0 198 99 0 
198 99 0 198 99 0 0 0 0 0 0 0 132 33 0 198 99 0 198 99 0 231 165 132 
0 0 0 198 99 0 0 0 0 0 0 0 165 165 165 165 165 165 165 165 165 165 165 165 
165 165 165 165 165 165 165 165 165 165 165 165 165 165 165 165 165 165 
0 0 0 231 165 132 132 33 0 0 0 0 0 0 0 198 99 0 198 99 0 198 99 0 231 231 231 
231 231 231 231 231 231 0 0 0 0 99 231 0 0 132 0 0 0 165 165 165 0 0 0 231 165 132 
231 165 132 231 165 132 231 165 132 231 165 132 198 99 0 198 99 0 0 0 0 231 231 231 
231 231 231 231 231 231 0 0 0 0 99 231 0 0 132 0 0 0 0 0 0 165 165 165 
0 0 0 198 99 0 198 99 0 198 99 0 198 99 0 132 33 0 0 0 0 0 0 0 132 33 0 
0 0 0 198 99 0 231 165 132 0 0 0 0 0 0 165 165 165 165 165 165 165 165 165 
165 165 165 165 165 165 165 165 165 165 165 165 165 165 165 165 165 165 
165 165 165 165 165 165 165 165 165 0 0 0 231 165 132 132 33 0 132 33 0 
0 0 0 198 99 0 198 99 0 198 99 0 231 231 231 231 231 231 231 231 231 
231 231 231 0 0 0 0 0 0 165 165 165 231 231 231 231 165 132 231 165 132 
231 165 132 231 165 132 231 165 132 231 165 132 198 99 0 198 99 0 0 0 0 231 231 231 
231 231 231 231 231 231 231 231 231 0 0 0 0 0 0 0 0 0 231 231 231 231 231 231 
0 0 0 198 99 0 198 99 0 198 99 0 198 99 0 198 99 0 0 0 0 0 0 0 0 0 0 198 99 0 
231 165 132 0 0 0 165 165 165 165 165 165 165 165 165 165 165 165 165 165 165 
165 165 165 165 165 165 165 165 165 165 165 165 165 165 165 165 165 165 
165 165 165 165 165 165 165 165 165 165 165 165 0 0 0 231 165 132 0 0 0 132 33 0 
0 0 0 198 99 0 198 99 0 0 0 0 231 231 231 231 231 231 231 231 231 231 231 231 
231 231 231 231 231 231 231 231 231 231 165 132 231 165 132 231 165 132 
231 165 132 231 165 132 231 165 132 231 165 132 231 165 132 231 165 132 
231 231 231 231 231 231 231 231 231 231 231 231 231 231 231 231 231 231 
231 231 231 231 231 231 231 231 231 198 99 0 198 99 0 198 99 0 198 99 0 
198 99 0 198 99 0 0 0 0 198 99 0 198 99 0 231 165 132 231 165 132 0 0 0 165 165 165 
165 165 165 165 165 165 165 165 165 165 165 165 165 165 165 165 165 165 
165 165 165 165 165 165 165 165 165 165 165 165 165 165 165 165 165 165 
165 165 165 165 165 165 0 0 0 231 165 132 198 99 0 132 33 0 0 0 0 198 99 0 
198 99 0 198 99 0 198 99 0 231 231 231 231 231 231 231 231 231 231 231 231 
231 231 231 231 165 132 231 165 132 231 165 132 231 165 132 231 165 132 
231 165 132 231 165 132 231 165 132 231 165 132 231 165 132 198 99 0 231 231 231 
231 231 231 231 231 231 231 231 231 231 231 231 231 231 231 231 231 231 
0 0 0 198 99 0 198 99 0 198 99 0 198 99 0 198 99 0 0 0 0 198 99 0 231 165 132 
231 165 132 231 165 132 0 0 0 165 165 165 165 165 165 165 165 165 165 165 165 
165 165 165 165 165 165 165 165 165 165 165 165 165 165 165 165 165 165 
165 165 165 165 165 165 165 165 165 165 165 165 165 165 165 165 165 165 
165 165 165 0 0 0 231 165 132 198 99 0 0 0 0 198 99 0 198 99 0 198 99 0 
198 99 0 198 99 0 231 165 132 231 165 132 231 165 132 231 165 132 231 165 132 
231 165 132 231 165 132 231 165 132 231 165 132 231 165 132 231 165 132 
231 165 132 198 99 0 231 165 132 231 165 132 231 165 132 231 165 132 
231 165 132 231 165 132 231 165 132 198 99 0 198 99 0 198 99 0 198 99 0 
198 99 0 198 99 0 132 33 0 198 99 0 0 0 0 231 165 132 231 165 132 0 0 0 0 0 0 
165 165 165 165 165 165 165 165 165 165 165 165 165 165 165 165 165 165 
165 165 165 165 165 165 165 165 165 165 165 165 165 165 165 165 165 165 
165 165 165 165 165 165 165 165 165 165 165 165 165 165 165 165 165 165 
165 165 165 0 0 0 0 0 0 0 0 0 198 99 0 198 99 0 231 165 132 231 165 132 
231 165 132 231 165 132 231 165 132 231 165 132 231 165 132 231 165 132 
231 165 132 231 165 132 231 165 132 198 99 0 198 99 0 231 165 132 231 165 132 
231 165 132 198 99 0 198 99 0 231 165 132 231 165 132 231 165 132 231 165 132 
231 165 132 231 165 132 231 165 132 231 165 132 231 165 132 198 99 0 198 99 0 
132 33 0 198 99 0 0 0 0 0 0 0 0 0 0 165 165 165 165 165 165 165 165 165 
165 165 165 165 165 165 165 165 165 165 165 165 165 165 165 165 165 165 
165 165 165 165 165 165 165 165 165 165 165 165 165 165 165 165 165 165 
165 165 165 165 165 165 165 165 165 165 165 165 165 165 165 165 165 165 
165 165 165 165 165 165 0 0 0 198 99 0 231 165 132 231 165 132 231 165 132 
231 165 132 231 165 132 231 165 132 231 165 132 231 165 132 231 165 132 
231 165 132 231 165 132 231 165 132 231 165 132 198 99 0 198 99 0 231 165 132 
231 165 132 231 165 132 231 165 132 231 165 132 231 165 132 231 165 132 
231 165 132 231 165 132 231 165 132 231 165 132 231 165 132 231 165 132 
231 165 132 132 33 0 198 99 0 198 99 0 0 0 0 0 0 0 165 165 165 165 165 165 
165 165 165 165 165 165 165 165 165 165 165 165 165 165 165 165 165 165 
165 165 165 165 165 165 165 165 165 165 165 165 165 165 165 165 165 165 
165 165 165 165 165 165 165 165 165 165 165 165 165 165 165 165 165 165 
165 165 165 165 165 165 165 165 165 165 165 165 0 0 0 198 99 0 231 165 132 
231 165 132 231 165 132 231 165 132 231 165 132 231 165 132 231 165 132 
231 165 132 231 165 132 231 165 132 0 0 0 132 33 0 132 33 0 198 99 0 198 99 0 
231 165 132 231 165 132 231 165 132 231 165 132 231 165 132 231 165 132 
231 165 132 231 165 132 231 165 132 231 165 132 231 165 132 231 165 132 
231 165 132 231 165 132 198 99 0 198 99 0 198 99 0 0 0 0 0 0 132 0 0 0 165 165 165 
165 165 165 165 165 165 165 165 165 165 165 165 165 165 165 165 165 165 
165 165 165 165 165 165 165 165 165 165 165 165 165 165 165 165 165 165 
165 165 165 165 165 165 165 165 165 165 165 165 165 165 165 165 165 165 
165 165 165 165 165 165 165 165 165 165 165 165 0 0 0 198 99 0 231 165 132 
231 165 132 231 165 132 231 165 132 231 165 132 231 165 132 231 165 132 
231 165 132 231 165 132 231 165 132 231 165 132 132 33 0 198 99 0 198 99 0 
231 165 132 231 165 132 231 165 132 231 165 132 231 165 132 231 165 132 
231 165 132 231 165 132 231 165 132 231 165 132 231 165 132 231 165 132 
231 165 132 231 165 132 231 165 132 198 99 0 198 99 0 0 0 0 0 0 0 0 0 0 0 0 132 
0 0 0 165 165 165 165 165 165 165 165 165 165 165 165 165 165 165 165 165 165 
165 165 165 165 165 165 165 165 165 165 165 165 165 165 165 165 165 165 
165 165 165 165 165 165 165 165 165 165 165 165 165 165 165 165 165 165 
165 165 165 165 165 165 165 165 165 165 165 165 0 0 0 198 99 0 231 165 132 
231 165 132 231 165 132 231 165 132 231 165 132 231 165 132 231 165 132 
231 165 132 231 165 132 231 165 132 231 165 132 231 165 132 231 165 132 
231 165 132 231 165 132 231 165 132 231 165 132 231 165 132 231 165 132 
198 99 0 231 165 132 231 165 132 231 165 132 231 165 132 231 165 132 
231 165 132 231 165 132 231 165 132 198 99 0 198 99 0 198 99 0 0 0 0 0 0 132 
0 0 132 0 0 0 0 99 231 0 0 0 165 165 165 165 165 165 165 165 165 165 165 165 
165 165 165 165 165 165 165 165 165 165 165 165 165 165 165 165 165 165 
165 165 165 165 165 165 165 165 165 165 165 165 165 165 165 165 165 165 
165 165 165 165 165 165 165 165 165 165 165 165 0 0 0 0 0 0 198 99 0 198 99 0 
231 165 132 231 165 132 231 165 132 231 165 132 231 165 132 231 165 132 
231 165 132 231 165 132 231 165 132 231 165 132 231 165 132 231 165 132 
231 165 132 231 165 132 231 165 132 231 165 132 231 165 132 231 165 132 
0 0 0 198 99 0 231 165 132 231 165 132 231 165 132 231 165 132 231 165 132 
231 165 132 231 165 132 198 99 0 198 99 0 198 99 0 0 0 0 0 0 0 0 0 0 0 0 132 
0 0 0 0 99 231 0 0 0 165 165 165 165 165 165 165 165 165 165 165 165 
165 165 165 165 165 165 165 165 165 165 165 165 165 165 165 165 165 165 
165 165 165 165 165 165 165 165 165 165 165 165 165 165 165 165 165 165 
165 165 165 165 165 165 0 0 0 0 0 132 0 0 0 0 0 0 198 99 0 198 99 0 231 165 132 
231 165 132 231 165 132 231 165 132 231 165 132 231 165 132 0 0 0 231 165 132 
231 165 132 231 165 132 231 165 132 231 165 132 231 165 132 231 165 132 
231 165 132 231 165 132 0 0 0 132 33 0 198 99 0 231 165 132 231 165 132 
231 165 132 231 165 132 231 165 132 231 165 132 198 99 0 198 99 0 198 99 0 
0 0 0 0 0 0 0 0 132 0 0 132 0 0 132 0 0 0 0 99 231 0 0 0 165 165 165 
165 165 165 165 165 165 165 165 165 165 165 165 165 165 165 165 165 165 
165 165 165 165 165 165 165 165 165 165 165 165 165 165 165 165 165 165 
165 165 165 0 0 0 0 0 0 0 0 0 0 0 0 0 0 132 0 0 0 0 0 132 0 0 0 198 99 0 
198 99 0 231 165 132 231 165 132 231 165 132 231 165 132 231 165 132 
231 165 132 231 165 132 0 0 0 0 0 0 0 0 0 0 0 0 0 0 0 0 0 0 0 0 0 0 0 0 0 0 0 
231 165 132 231 165 132 231 165 132 231 165 132 231 165 132 231 165 132 
231 165 132 231 165 132 198 99 0 198 99 0 198 99 0 198 99 0 0 0 0 0 0 132 
0 0 132 0 0 132 0 0 132 0 99 231 0 0 0 0 99 231 0 0 0 165 165 165 165 165 165 
165 165 165 165 165 165 165 165 165 165 165 165 165 165 165 165 165 165 
165 165 165 165 165 165 165 165 165 165 165 165 0 0 0 0 99 231 0 0 132 0 0 132 
0 0 0 0 99 231 0 0 0 0 0 132 0 0 132 0 0 0 198 99 0 198 99 0 231 165 132 
231 165 132 231 165 132 231 165 132 231 165 132 231 165 132 231 165 132 
231 165 132 231 165 132 231 165 132 231 165 132 231 165 132 231 165 132 
231 165 132 231 165 132 231 165 132 231 165 132 231 165 132 231 165 132 
231 165 132 231 165 132 231 165 132 231 165 132 198 99 0 198 99 0 198 99 0 
0 0 0 0 0 132 0 0 132 0 0 132 0 0 132 0 99 231 0 0 0 0 0 0 0 99 231 0 0 0 
0 0 0 0 0 0 0 0 0 0 0 0 0 0 0 165 165 165 165 165 165 165 165 165 165 165 165 
165 165 165 165 165 165 0 0 0 0 99 231 0 0 132 0 0 132 0 0 0 0 99 231 0 0 0 
0 0 0 0 0 132 0 0 132 0 0 132 0 0 0 198 99 0 231 165 132 231 165 132 
231 165 132 231 165 132 231 165 132 231 165 132 231 165 132 231 165 132 
231 165 132 231 165 132 231 165 132 231 165 132 231 165 132 231 165 132 
231 165 132 231 165 132 231 165 132 231 165 132 231 165 132 231 165 132 
231 165 132 231 165 132 198 99 0 198 99 0 198 99 0 0 0 0 0 0 132 0 0 132 
0 0 132 0 99 231 0 0 0 0 0 0 0 99 231 0 0 0 0 99 231 0 0 0 0 0 0 0 99 231 
0 99 231 0 0 0 0 99 231 0 0 0 165 165 165 165 165 165 165 165 165 165 165 165 
165 165 165 0 0 0 0 99 231 0 0 132 0 99 231 0 0 0 0 99 231 0 0 0 0 0 132 
0 0 0 0 0 132 0 0 132 0 0 132 0 0 0 198 99 0 198 99 0 231 165 132 231 165 132 
231 165 132 231 165 132 231 165 132 198 99 0 132 33 0 132 33 0 132 33 0 
198 99 0 198 99 0 231 165 132 231 165 132 231 165 132 231 165 132 231 165 132 
231 165 132 231 165 132 198 99 0 198 99 0 198 99 0 0 0 0 0 0 0 0 0 132 0 0 132 
0 0 132 0 0 0 0 0 0 0 0 132 0 0 132 0 99 231 0 0 0 0 99 231 0 0 0 0 0 0 0 0 132 
0 0 132 0 0 0 0 99 231 0 0 0 165 165 165 165 165 165 165 165 165 165 165 165 
165 165 165 0 0 0 0 99 231 0 0 132 0 0 0 0 99 231 0 0 0 0 99 231 0 0 132 
0 0 132 0 0 0 0 0 0 0 0 0 0 0 0 0 0 0 0 0 0 198 99 0 198 99 0 231 165 132 
231 165 132 231 165 132 231 165 132 231 165 132 231 165 132 231 165 132 
231 165 132 231 165 132 231 165 132 231 165 132 231 165 132 231 165 132 
231 165 132 198 99 0 198 99 0 198 99 0 0 0 0 0 0 0 0 0 0 0 0 0 0 0 0 0 0 0 
0 0 0 0 0 132 0 0 132 0 0 132 0 99 231 0 0 0 0 0 0 0 99 231 0 0 0 0 0 0 0 0 132 
0 0 0 0 99 231 0 0 0 0 0 0 165 165 165 165 165 165 165 165 165 165 165 165 
165 165 165 0 0 0 0 99 231 0 0 132 0 0 0 0 99 231 0 0 0 0 0 0 0 99 231 
0 0 132 0 0 132 0 0 132 0 0 132 0 0 132 0 0 132 0 0 132 0 0 0 0 0 0 198 99 0 
198 99 0 198 99 0 231 165 132 231 165 132 231 165 132 231 165 132 231 165 132 
231 165 132 231 165 132 231 165 132 198 99 0 198 99 0 198 99 0 0 0 0 0 0 0 
0 0 0 132 33 0 132 33 0 0 0 0 0 0 132 0 0 132 0 0 132 0 0 132 0 0 132 0 99 231 
0 0 0 0 0 0 0 0 0 0 99 231 0 0 0 0 0 132 0 0 0 0 0 132 0 0 0 0 99 231 0 0 0 
165 165 165 165 165 165 165 165 165 165 165 165 165 165 165 165 165 165 
0 0 0 0 99 231 0 0 132 0 0 0 0 99 231 0 0 0 0 0 132 0 0 0 0 0 0 0 0 132 
0 0 132 0 0 132 0 0 132 0 0 132 0 0 132 0 0 0 132 33 0 0 0 0 0 0 0 0 0 0 198 99 0 
198 99 0 198 99 0 198 99 0 198 99 0 198 99 0 198 99 0 198 99 0 0 0 0 0 0 0 
0 0 0 132 33 0 132 33 0 132 33 0 132 33 0 0 0 0 0 0 132 0 0 132 0 0 132 
0 99 231 0 0 0 0 0 0 0 0 0 0 99 231 0 99 231 0 0 0 0 99 231 0 0 0 0 0 0 0 0 132 
0 0 132 0 0 0 0 99 231 0 0 0 165 165 165 165 165 165 165 165 165 165 165 165 
165 165 165 165 165 165 0 0 0 0 99 231 0 0 132 0 0 0 0 99 231 0 0 0 0 0 132 
0 99 231 0 99 231 0 0 0 0 0 0 0 0 0 0 0 0 0 0 0 0 0 0 0 0 0 132 33 0 132 33 0 
132 33 0 132 33 0 0 0 0 0 0 0 0 0 0 0 0 0 0 0 0 0 0 0 0 0 0 0 0 0 132 33 0 
132 33 0 132 33 0 132 33 0 132 33 0 132 33 0 0 0 0 0 0 0 0 0 0 0 0 0 0 0 0 
0 0 0 0 99 231 0 99 231 0 99 231 0 99 231 0 0 0 0 99 231 0 0 0 0 0 132 0 0 0 
0 0 132 0 0 0 0 99 231 0 0 0 165 165 165 165 165 165 165 165 165 165 165 165 
165 165 165 165 165 165 165 165 165 0 0 0 0 99 231 0 0 132 0 0 0 0 0 0 0 99 231 
0 0 0 0 0 132 0 99 231 0 99 231 0 0 132 0 0 132 0 0 132 0 0 132 0 0 132 
0 0 0 132 33 0 198 99 0 198 99 0 132 33 0 132 33 0 132 33 0 132 33 0 132 33 0 
132 33 0 132 33 0 132 33 0 132 33 0 132 33 0 132 33 0 132 33 0 132 33 0 
0 0 0 0 0 0 0 0 132 0 0 132 0 0 132 0 0 132 0 0 132 0 99 231 0 99 231 0 99 231 
0 99 231 0 0 0 0 99 231 0 0 0 0 0 132 0 0 0 0 0 132 0 0 132 0 0 0 0 99 231 
0 0 0 0 0 0 165 165 165 165 165 165 165 165 165 165 165 165 165 165 165 
165 165 165 165 165 165 0 0 0 0 99 231 0 0 0 0 0 0 0 99 231 0 0 0 0 0 0 0 0 132 
0 0 132 0 99 231 0 0 132 0 0 132 0 0 132 0 0 132 0 0 0 132 33 0 198 99 0 
198 99 0 198 99 0 198 99 0 132 33 0 132 33 0 132 33 0 132 33 0 132 33 0 
132 33 0 132 33 0 132 33 0 132 33 0 132 33 0 0 0 0 0 0 132 0 0 132 0 0 132 
0 99 231 0 99 231 0 99 231 0 99 231 0 99 231 0 0 0 0 0 0 0 0 0 0 99 231 
0 0 0 0 0 132 0 0 0 0 0 132 0 0 132 0 99 231 0 0 0 0 99 231 0 0 0 0 0 132 
0 0 0 165 165 165 165 165 165 165 165 165 165 165 165 
